name ./resultDataOpenSim/trcMotMarkerGrf/sub09/grf-05-02.mot
datacolumns 19
datarows 22
range 0.51200000 0.59600000
endheader

                time	     ground_force_vx	     ground_force_vy	     ground_force_vz	     ground_force_px	     ground_force_py	     ground_force_pz	   l_ground_force_vx	   l_ground_force_vy	   l_ground_force_vz	   l_ground_force_px	   l_ground_force_py	   l_ground_force_pz	     ground_torque_x	     ground_torque_y	     ground_torque_z	   l_ground_torque_x	   l_ground_torque_y	   l_ground_torque_z	
          0.51200000	         30.88058662	        379.56273471	        -10.86849613	         -0.64801184	          0.00000000	          0.11628039	          0.00000000	          0.00000000	          0.00000000	          0.00000000	          0.00000000	          0.00000000	          0.00000000	          2.07120582	          0.00000000	          0.00000000	          0.00000000	          0.00000000	
          0.51600000	         33.35859925	        381.34927924	        -10.12757700	         -0.64690115	          0.00000000	          0.11697051	          0.00000000	          0.00000000	          0.00000000	          0.00000000	          0.00000000	          0.00000000	          0.00000000	          2.35041467	          0.00000000	          0.00000000	          0.00000000	          0.00000000	
          0.52000000	         35.33342380	        383.55713603	         -9.69391589	         -0.64562288	          0.00000000	          0.11762653	          0.00000000	          0.00000000	          0.00000000	          0.00000000	          0.00000000	          0.00000000	          0.00000000	          2.59709162	          0.00000000	          0.00000000	          0.00000000	          0.00000000	
          0.52400000	         36.76001485	        386.26945635	         -9.81130764	         -0.64413830	          0.00000000	          0.11827214	          0.00000000	          0.00000000	          0.00000000	          0.00000000	          0.00000000	          0.00000000	          0.00000000	          2.76685854	          0.00000000	          0.00000000	          0.00000000	          0.00000000	
          0.52800000	         37.72211478	        389.54861788	        -10.59270194	         -0.64243731	          0.00000000	          0.11892657	          0.00000000	          0.00000000	          0.00000000	          0.00000000	          0.00000000	          0.00000000	          0.00000000	          2.83323239	          0.00000000	          0.00000000	          0.00000000	          0.00000000	
          0.53200000	         38.39139721	        393.42022061	        -12.00030634	         -0.64052302	          0.00000000	          0.11960402	          0.00000000	          0.00000000	          0.00000000	          0.00000000	          0.00000000	          0.00000000	          0.00000000	          2.79325037	          0.00000000	          0.00000000	          0.00000000	          0.00000000	
          0.53600000	         38.96588543	        397.88823887	        -13.85973653	         -0.63840305	          0.00000000	          0.12031120	          0.00000000	          0.00000000	          0.00000000	          0.00000000	          0.00000000	          0.00000000	          0.00000000	          2.66842460	          0.00000000	          0.00000000	          0.00000000	          0.00000000	
          0.54000000	         39.60372443	        402.97187916	        -15.90312137	         -0.63611325	          0.00000000	          0.12103448	          0.00000000	          0.00000000	          0.00000000	          0.00000000	          0.00000000	          0.00000000	          0.00000000	          2.50051008	          0.00000000	          0.00000000	          0.00000000	          0.00000000	
          0.54400000	         40.37450275	        408.72751723	        -17.82860225	         -0.63372124	          0.00000000	          0.12173541	          0.00000000	          0.00000000	          0.00000000	          0.00000000	          0.00000000	          0.00000000	          0.00000000	          2.34261622	          0.00000000	          0.00000000	          0.00000000	          0.00000000	
          0.54800000	         41.24869304	        415.23433478	        -19.36261790	         -0.63128949	          0.00000000	          0.12236997	          0.00000000	          0.00000000	          0.00000000	          0.00000000	          0.00000000	          0.00000000	          0.00000000	          2.24736984	          0.00000000	          0.00000000	          0.00000000	          0.00000000	
          0.55200000	         42.12891076	        422.56115840	        -20.31484987	         -0.62885160	          0.00000000	          0.12291070	          0.00000000	          0.00000000	          0.00000000	          0.00000000	          0.00000000	          0.00000000	          0.00000000	          2.25476272	          0.00000000	          0.00000000	          0.00000000	          0.00000000	
          0.55600000	         42.90842252	        430.74646589	        -20.61606936	         -0.62641929	          0.00000000	          0.12335093	          0.00000000	          0.00000000	          0.00000000	          0.00000000	          0.00000000	          0.00000000	          0.00000000	          2.38258568	          0.00000000	          0.00000000	          0.00000000	          0.00000000	
          0.56000000	         43.53422015	        439.79872404	        -20.33036944	         -0.62401016	          0.00000000	          0.12369405	          0.00000000	          0.00000000	          0.00000000	          0.00000000	          0.00000000	          0.00000000	          0.00000000	          2.62177633	          0.00000000	          0.00000000	          0.00000000	          0.00000000	
          0.56400000	         44.05300405	        449.70057812	        -19.63964187	         -0.62166731	          0.00000000	          0.12394784	          0.00000000	          0.00000000	          0.00000000	          0.00000000	          0.00000000	          0.00000000	          0.00000000	          2.93777515	          0.00000000	          0.00000000	          0.00000000	          0.00000000	
          0.56800000	         44.62529667	        460.40912954	        -18.80419235	         -0.61944380	          0.00000000	          0.12412801	          0.00000000	          0.00000000	          0.00000000	          0.00000000	          0.00000000	          0.00000000	          0.00000000	          3.27755450	          0.00000000	          0.00000000	          0.00000000	          0.00000000	
          0.57200000	         45.50363999	        471.85611770	        -18.10837153	         -0.61737270	          0.00000000	          0.12426029	          0.00000000	          0.00000000	          0.00000000	          0.00000000	          0.00000000	          0.00000000	          0.00000000	          3.58076933	          0.00000000	          0.00000000	          0.00000000	          0.00000000	
          0.57600000	         46.98365383	        483.95081396	        -17.80268902	         -0.61545849	          0.00000000	          0.12438051	          0.00000000	          0.00000000	          0.00000000	          0.00000000	          0.00000000	          0.00000000	          0.00000000	          3.79266521	          0.00000000	          0.00000000	          0.00000000	          0.00000000	
          0.58000000	         49.34239040	        496.59354309	        -18.05276176	         -0.61369834	          0.00000000	          0.12452249	          0.00000000	          0.00000000	          0.00000000	          0.00000000	          0.00000000	          0.00000000	          0.00000000	          3.87601330	          0.00000000	          0.00000000	          0.00000000	          0.00000000	
          0.58400000	         52.77807920	        509.70289173	        -18.90541637	         -0.61209398	          0.00000000	          0.12470257	          0.00000000	          0.00000000	          0.00000000	          0.00000000	          0.00000000	          0.00000000	          0.00000000	          3.81946194	          0.00000000	          0.00000000	          0.00000000	          0.00000000	
          0.58800000	         57.36407539	        523.23786243	        -20.27987370	         -0.61066407	          0.00000000	          0.12491893	          0.00000000	          0.00000000	          0.00000000	          0.00000000	          0.00000000	          0.00000000	          0.00000000	          3.64035656	          0.00000000	          0.00000000	          0.00000000	          0.00000000	
          0.59200000	         63.02811612	        537.19402227	        -21.98402382	         -0.60942310	          0.00000000	          0.12514877	          0.00000000	          0.00000000	          0.00000000	          0.00000000	          0.00000000	          0.00000000	          0.00000000	          3.38123630	          0.00000000	          0.00000000	          0.00000000	          0.00000000	
          0.59600000	         69.56629818	        551.57556705	        -23.74967655	         -0.60836224	          0.00000000	          0.12535745	          0.00000000	          0.00000000	          0.00000000	          0.00000000	          0.00000000	          0.00000000	          0.00000000	          3.10065375	          0.00000000	          0.00000000	          0.00000000	          0.00000000	
